# xmcd CD database file
#
# Track frame offsets:
#	150
#	18082
#	37863
#	60771
#	80566
#	102837
#	119893
#	141372
#	162017
#
# Disc length: 2397 seconds
#
# Revision: 1
# Processed by: cddbd v1.5.2PL0 Copyright (c) Steve Scherf et al.
# Submitted via: CDex 1.70beta2
#
DISCID=68095b09
DTITLE=Gilles Voyer - Pasione
DYEAR=2007
DGENRE=Jazz
TTITLE0=Pou i pe sa tchenbe
TTITLE1=Mizik nou
TTITLE2=Ki kote
TTITLE3=Moman plezi
TTITLE4=An ti koutzie
TTITLE5=Pasione
TTITLE6=Foli kanel
TTITLE7=Mande mwen
TTITLE8=Pou i pe sa tchenbe (instrumental)
EXTD=YEAR: 2007
EXTT0=
EXTT1=
EXTT2=
EXTT3=
EXTT4=
EXTT5=
EXTT6=
EXTT7=
EXTT8=
PLAYORDER=
